# xmcd CD database file
#
# Track frame offsets:
#	150
#	13992
#	24907
#	35680
#	50352
#	60458
#	73420
#	83974
#	100387
#	116777
#	134535
#	151733
#	173724
#	193537
#	208115
#	221016
#	233921
#	247910
#	260375
#	273186
#
# Disc length: 3835 seconds
#
# Revision: 1
# Processed by: cddbd v1.5PL3 Copyright (c) Steve Scherf et al.
# Submitted via: CDex 1.51
#
DISCID=200ef914
DTITLE=Sarah Vaughan - The Platinum Collection - 2
DYEAR=1997
DGENRE=Jazz
TTITLE0=Misty
TTITLE1=Separate Ways
TTITLE2=Friendly Enemies
TTITLE3=I've Got The World on a String
TTITLE4=Are You Certain?
TTITLE5=Lord's Prayer
TTITLE6=When Your Lover Has Gone
TTITLE7='Round Midnight
TTITLE8=The Nearness Of You
TTITLE9=When Sunny Gets Blue
TTITLE10=Sophisticated Lady
TTITLE11=Remember You
TTITLE12=Star Eyes
TTITLE13=It's You Or No-One
TTITLE14=Love me or Leave me
TTITLE15=East Of The Sun
TTITLE16=The One I Love (Belongs To Somebody Else)
TTITLE17=Sonetimes I Feel Like A Motherless Child
TTITLE18=What A Difference A Day Made
TTITLE19=Lover Man
EXTD=YEAR: 1997
EXTT0=
EXTT1=
EXTT2=
EXTT3=
EXTT4=
EXTT5=
EXTT6=
EXTT7=
EXTT8=
EXTT9=
EXTT10=
EXTT11=
EXTT12=
EXTT13=
EXTT14=
EXTT15=
EXTT16=
EXTT17=
EXTT18=
EXTT19=
PLAYORDER=
